<?xml version="1.0" standalone="no"?><!DOCTYPE svg PUBLIC "-//W3C//DTD SVG 1.1//EN" "http://www.w3.org/Graphics/SVG/1.1/DTD/svg11.dtd"><svg class="icon" width="200px" height="200.00px" viewBox="0 0 1024 1024" version="1.1" xmlns="http://www.w3.org/2000/svg"><path fill="#333333" d="M378 446.2H201.1c-34.1 0-62.1-27.9-62.1-62.1V207.2c0-34.1 27.9-62.1 62.1-62.1H378c34.1 0 62.1 27.9 62.1 62.1v176.9c0 34.2-28 62.1-62.1 62.1z"  /><path fill="#333333" d="M378 471.2H201.1c-48 0-87.1-39.1-87.1-87.1V207.2c0-48 39.1-87.1 87.1-87.1H378c48 0 87.1 39.1 87.1 87.1v176.9c0 48-39.1 87.1-87.1 87.1z m-176.9-301c-20.4 0-37.1 16.6-37.1 37.1v176.9c0 20.4 16.6 37.1 37.1 37.1H378c20.4 0 37.1-16.6 37.1-37.1v-177c0-20.4-16.6-37.1-37.1-37.1H201.1zM378 877.1H201.1c-34.1 0-62.1-27.9-62.1-62.1V638.1c0-34.1 27.9-62.1 62.1-62.1H378c34.1 0 62.1 27.9 62.1 62.1V815c0 34.1-28 62.1-62.1 62.1z"  /><path fill="#333333" d="M378 902.1H201.1c-48 0-87.1-39.1-87.1-87.1V638.1c0-48 39.1-87.1 87.1-87.1H378c48 0 87.1 39.1 87.1 87.1V815c0 48-39.1 87.1-87.1 87.1z m-176.9-301c-20.4 0-37.1 16.6-37.1 37.1V815c0 20.4 16.6 37.1 37.1 37.1H378c20.4 0 37.1-16.6 37.1-37.1V638.1c0-20.4-16.6-37.1-37.1-37.1H201.1z"  /><path fill="#333333" d="M809.1 877.1H632.2c-34.1 0-62.1-27.9-62.1-62.1V638.1c0-34.1 27.9-62.1 62.1-62.1h176.9c34.1 0 62.1 27.9 62.1 62.1V815c0 34.1-27.9 62.1-62.1 62.1z"  /><path fill="#333333" d="M809.1 902.1H632.2c-48 0-87.1-39.1-87.1-87.1V638.1c0-48 39.1-87.1 87.1-87.1h176.9c48 0 87.1 39.1 87.1 87.1V815c0 48-39.1 87.1-87.1 87.1z m-176.9-301c-20.4 0-37.1 16.6-37.1 37.1V815c0 20.4 16.6 37.1 37.1 37.1h176.9c20.4 0 37.1-16.6 37.1-37.1V638.1c0-20.4-16.6-37.1-37.1-37.1H632.2z"  /><path fill="#333333" d="M676.8 435.7l-96.2-96.2c-24.1-24.1-24.1-63.6 0-87.8l96.2-96.2c24.1-24.1 63.6-24.1 87.8 0l96.2 96.2c24.1 24.1 24.1 63.6 0 87.8l-96.2 96.2c-24.2 24.2-63.7 24.2-87.8 0z"  /><path fill="#333333" d="M720.7 478.8c-23.3 0-45.2-9-61.6-25.4L563 357.2c-16.4-16.4-25.4-38.3-25.4-61.6 0-23.3 9-45.2 25.4-61.6l96.2-96.2c16.4-16.4 38.3-25.4 61.6-25.4 23.3 0 45.2 9 61.6 25.4l96.2 96.2c16.4 16.4 25.4 38.3 25.4 61.6 0 23.3-9 45.2-25.4 61.6l-96.2 96.2c-16.6 16.4-38.4 25.4-61.7 25.4zM694.5 418c7 7 16.3 10.8 26.2 10.8 9.9 0 19.3-3.8 26.2-10.8l96.2-96.2c7-7 10.8-16.3 10.8-26.2 0-9.9-3.8-19.3-10.8-26.2l-96.2-96.2c-7-7-16.3-10.8-26.2-10.8-9.9 0-19.3 3.8-26.2 10.8l-96.2 96.2c-7 7-10.8 16.3-10.8 26.2 0 9.9 3.8 19.3 10.8 26.2l96.2 96.2z"  /></svg>