<?xml version="1.0" standalone="no"?><!DOCTYPE svg PUBLIC "-//W3C//DTD SVG 1.1//EN" "http://www.w3.org/Graphics/SVG/1.1/DTD/svg11.dtd"><svg t="1624434024822" class="icon" viewBox="0 0 1024 1024" version="1.1" xmlns="http://www.w3.org/2000/svg" p-id="1302" xmlns:xlink="http://www.w3.org/1999/xlink" width="200" height="200"><defs><style type="text/css"></style></defs><path d="M896 341.333333l-1.792-0.085333-512-42.666667a21.333333 21.333333 0 1 1 3.541333-42.496l512 42.666667a21.333333 21.333333 0 0 1-1.706666 42.581333zM384 917.333333a106.666667 106.666667 0 1 1 106.666667-106.666666A106.794667 106.794667 0 0 1 384 917.333333z m0-170.666666a64 64 0 1 0 64 64A64.085333 64.085333 0 0 0 384 746.666667zM725.333333 917.333333a106.666667 106.666667 0 1 1 106.666667-106.666666 106.794667 106.794667 0 0 1-106.666667 106.666666z m0-170.666666a64 64 0 1 0 64 64 64.085333 64.085333 0 0 0-64-64z" p-id="1303"></path><path d="M320 682.666667a21.333333 21.333333 0 0 1-21.333333-21.333334C298.666667 315.52 225.408 212.906667 181.76 182.485333a76.202667 76.202667 0 0 0-67.413333-13.226666 21.589333 21.589333 0 0 1-27.434667-12.288 21.162667 21.162667 0 0 1 11.818667-27.434667 118.058667 118.058667 0 0 1 105.813333 16.896c88.234667 59.733333 134.186667 225.109333 136.704 491.733333l459.605333-38.272a21.504 21.504 0 0 0 18.730667-15.445333l62.634667-261.802667a21.333333 21.333333 0 1 1 41.514666 9.898667l-62.890666 262.741333a64.682667 64.682667 0 0 1-56.405334 47.104l-482.688 40.192L320 682.666667z" p-id="1304"></path></svg>