<?xml version="1.0" standalone="no"?><!DOCTYPE svg PUBLIC "-//W3C//DTD SVG 1.1//EN" "http://www.w3.org/Graphics/SVG/1.1/DTD/svg11.dtd"><svg class="icon" width="200px" height="200.00px" viewBox="0 0 1024 1024" version="1.1" xmlns="http://www.w3.org/2000/svg"><path fill="#333333" d="M952.719048 441.554578 808.929178 317.061193 808.929178 81.927941c0-9.890254-8.017604-17.907858-17.907858-17.907858L642.30116 64.020082c-9.890254 0-17.907858 8.017604-17.907858 17.907858l0 75.232448-101.277638-88.704275c-6.736425-5.900384-16.796548-5.91778-23.553439-0.038886L70.133825 442.036555c-5.635347 4.903683-7.634888 12.789281-5.018294 19.785625 2.617617 6.995321 9.302877 11.632945 16.773012 11.632945l57.456596 0 0 467.487204c0 9.890254 8.017604 17.907858 17.907858 17.907858l261.454734 0c9.890254 0 17.907858-8.017604 17.907858-17.907858l0-243.894799 151.449317 0 0 243.894799c0 9.890254 8.017604 17.907858 17.907858 17.907858l259.409145 0c9.890254 0 17.907858-8.017604 17.907858-17.907858l0-467.487204 58.232263 0c0.00614 0 0.01228 0 0.021489 0 9.889231 0 17.907858-8.017604 17.907858-17.907858C959.45138 449.885314 956.822506 444.836321 952.719048 441.554578z" /></svg>